<?xml version="1.0" encoding="utf-8"?>
<!-- Generator: Adobe Illustrator 14.0.0, SVG Export Plug-In . SVG Version: 6.00 Build 43363)  -->
<!DOCTYPE svg PUBLIC "-//W3C//DTD SVG 1.1//EN" "http://www.w3.org/Graphics/SVG/1.1/DTD/svg11.dtd">
<svg version="1.1" id="Layer_1" xmlns="http://www.w3.org/2000/svg" xmlns:xlink="http://www.w3.org/1999/xlink" x="0px" y="0px"
	 width="800px" height="688px" viewBox="0 0 800 688" enable-background="new 0 0 800 688" xml:space="preserve">
<g>
	<path fill-rule="evenodd" clip-rule="evenodd" d="M616.104,670.165c17.124-26.519,45.169-38.211,64.18-61.023
		c44.98-53.976,60.401-149.458,37.877-237.78c-29.3-114.886-110.873-189.093-231.468-213.581
		c-95.834-19.46-178.335,7.06-231.467,52.606c-25.483,21.845-50.85,51.372-65.231,82.065c-4.375,9.336-8.979,30.661-4.208,44.189
		c8.376,23.756,35.098,30.584,68.388,31.563c-1.704,6.714-1.145,15.689-3.156,22.096c-26.689,1.717-54.678,2.137-83.118,2.104
		c-8.992,22.393,5.433,44.027,22.095,53.659c16.156,9.34,39.041,11.565,62.075,11.572c-1.871,6.196-3.39,12.743-5.261,18.938
		c-79.961,0-159.923,0-239.884,0c1.961-3.74-2.579-9.276-1.052-13.678c3.097-8.926,32.069-10.38,39.981-15.781
		c15.994-10.921,12.996-28.955,15.782-53.659c-18.033-1.956-38.122-1.859-56.815-3.155c0.429-8.341,1.675-15.86,2.104-24.199
		c26.783-1.55,48.91-6.257,56.815-28.407c4.379-12.271,3.691-25.441,6.312-36.824c17.543-76.187,60.367-140.17,110.473-186.227
		c45.163-41.513,95.102-74.136,165.184-89.431c22.444-4.898,50.314-9.014,78.908-9.469c92.381-1.47,170.706,31.407,227.26,75.753
		c57.387,45,103.317,102.763,126.255,176.757c24.015,77.473,20.158,192.582-10.521,260.927
		c-22.832,50.859-52.621,98.696-95.744,131.516C657.804,671.398,636.702,681.551,616.104,670.165z"/>
	<path fill-rule="evenodd" clip-rule="evenodd" d="M487.746,371.362c34.859-4.721,59.632,18.909,62.074,48.397
		c3.529,42.613-32.248,61.79-58.918,59.972C423.303,475.122,427.213,379.559,487.746,371.362z"/>
</g>
</svg>
